<?xml version="1.0" standalone="no"?>
<!DOCTYPE svg PUBLIC "-//W3C//DTD SVG 20010904//EN"
 "http://www.w3.org/TR/2001/REC-SVG-20010904/DTD/svg10.dtd">
<svg version="1.0" xmlns="http://www.w3.org/2000/svg"
 width="572.000000pt" height="572.000000pt" viewBox="0 0 572.000000 572.000000"
 preserveAspectRatio="xMidYMid meet">
<metadata>
Created by potrace 1.11, written by Peter Selinger 2001-2013
</metadata>
<g transform="translate(0.000000,572.000000) scale(0.100000,-0.100000)"
fill="#000000" stroke="none">
<path d="M4540 4241 c0 -5 -9 -13 -20 -16 -18 -6 -230 -208 -230 -219 0 -2
-12 -17 -27 -33 -66 -69 -113 -124 -113 -133 0 -6 -3 -10 -7 -10 -10 0 -63
-45 -63 -54 0 -7 -30 -43 -85 -102 -22 -23 -65 -70 -95 -104 -30 -34 -77 -86
-105 -115 -27 -30 -64 -71 -82 -92 -17 -21 -48 -55 -67 -76 -20 -20 -36 -39
-36 -41 0 -3 -26 -31 -57 -63 -32 -32 -71 -76 -88 -97 -16 -21 -61 -71 -100
-111 -38 -39 -88 -93 -110 -121 -22 -27 -69 -78 -105 -115 -36 -36 -78 -83
-95 -104 -41 -55 -102 -114 -109 -108 -10 10 -7 100 5 150 22 97 31 129 45
161 8 18 14 42 14 52 0 11 5 20 10 20 6 0 10 9 10 20 0 11 11 43 25 72 14 28
25 60 25 69 0 10 5 21 10 24 6 3 10 14 10 24 0 10 7 32 15 47 8 16 15 37 15
47 0 9 4 17 9 17 5 0 11 12 14 28 12 60 20 87 27 92 17 13 53 245 53 345 0
114 -23 158 -90 171 -23 4 -36 -2 -70 -33 -24 -22 -43 -45 -43 -51 0 -7 -4
-12 -10 -12 -5 0 -10 -4 -10 -9 0 -4 -16 -25 -35 -45 -19 -21 -35 -42 -35 -47
0 -6 -11 -20 -25 -33 -14 -13 -25 -27 -25 -31 0 -10 -71 -109 -82 -113 -4 -2
-8 -8 -8 -14 0 -5 -6 -16 -12 -23 -30 -33 -38 -45 -38 -55 0 -5 -4 -10 -10
-10 -5 0 -10 -7 -10 -15 0 -9 -11 -28 -25 -43 -14 -15 -25 -32 -25 -39 0 -7
-4 -13 -10 -13 -5 0 -10 -5 -10 -10 0 -6 -4 -16 -10 -23 -46 -56 -60 -76 -60
-84 0 -5 -8 -18 -18 -29 -15 -17 -27 -34 -77 -115 -24 -39 -69 -104 -74 -109
-12 -10 -61 -90 -61 -100 0 -5 -4 -10 -8 -10 -5 0 -17 -16 -28 -35 -10 -19
-22 -35 -26 -35 -5 0 -8 -5 -8 -11 0 -6 -6 -17 -12 -24 -30 -33 -38 -45 -38
-55 0 -5 -4 -10 -9 -10 -5 0 -12 -8 -15 -18 -4 -10 -14 -27 -24 -38 -9 -10
-30 -37 -47 -59 -35 -48 -89 -100 -127 -123 -16 -9 -28 -20 -28 -24 0 -4 -5
-8 -11 -8 -6 0 -17 -6 -24 -12 -33 -30 -45 -38 -55 -38 -5 0 -10 -4 -10 -10 0
-5 -9 -10 -20 -10 -11 0 -20 -3 -20 -8 0 -4 -16 -16 -35 -26 -19 -11 -35 -23
-35 -28 0 -4 -11 -8 -25 -8 -14 0 -25 -4 -25 -8 0 -10 -71 -42 -93 -42 -9 0
-19 -4 -22 -10 -3 -5 -16 -10 -29 -10 -12 0 -26 -4 -31 -9 -19 -18 -112 -34
-217 -38 -90 -4 -111 -1 -135 14 -37 24 -53 39 -53 52 0 16 -38 51 -55 51 -8
0 -15 -3 -15 -7 0 -5 -11 -21 -25 -37 -14 -16 -25 -35 -25 -43 0 -7 -4 -13
-10 -13 -15 0 -12 -42 5 -83 16 -39 80 -97 107 -97 9 0 19 -4 22 -9 20 -31
462 -31 482 0 3 5 20 9 39 9 19 0 36 4 40 9 3 5 19 12 35 16 17 4 30 11 30 16
0 5 9 9 20 9 11 0 20 5 20 10 0 6 11 10 25 10 14 0 25 4 25 9 0 5 10 13 23 17
12 4 29 15 38 25 9 11 24 19 33 19 9 0 16 5 16 10 0 6 4 10 10 10 9 0 42 25
76 58 7 6 15 12 17 12 6 0 157 150 157 156 0 3 9 15 20 27 57 62 90 104 96
120 3 9 10 17 15 17 5 0 9 7 9 15 0 8 3 15 8 15 4 0 18 16 31 35 13 19 34 47
47 62 13 16 27 36 30 46 3 9 10 17 15 17 5 0 9 5 9 11 0 6 11 25 25 43 14 18
25 38 25 44 0 7 5 12 10 12 6 0 10 6 10 14 0 8 3 16 8 18 10 4 62 86 62 98 0
5 5 10 10 10 6 0 10 6 10 13 0 8 11 27 25 43 14 16 25 37 25 47 0 9 4 17 8 17
5 0 17 16 28 35 10 19 21 35 24 35 3 0 12 15 19 33 8 17 25 43 38 57 13 14 23
28 23 32 0 5 5 8 10 8 6 0 10 -18 10 -39 0 -22 -4 -43 -10 -46 -5 -3 -10 -19
-10 -35 0 -16 -4 -32 -10 -35 -5 -3 -10 -13 -10 -22 0 -8 -6 -29 -14 -46 -7
-18 -19 -52 -26 -77 -7 -25 -23 -74 -36 -110 -13 -36 -24 -75 -24 -88 0 -12
-4 -22 -10 -22 -5 0 -10 -15 -10 -34 0 -19 -4 -38 -10 -41 -5 -3 -10 -20 -10
-36 0 -17 -5 -40 -12 -52 -20 -36 -30 -131 -35 -324 -2 -123 0 -183 7 -183 5
0 10 -7 10 -15 0 -8 7 -15 15 -15 8 0 15 -4 15 -8 0 -14 92 -34 104 -22 5 5
19 10 31 10 29 0 111 82 138 138 5 12 14 22 19 22 4 0 8 6 8 13 0 17 51 121
62 125 4 2 8 15 8 28 0 13 5 24 10 24 6 0 10 7 10 15 0 9 11 33 25 55 14 22
25 44 25 50 0 5 5 10 10 10 6 0 10 4 10 9 0 5 21 31 48 59 26 28 73 78 105
111 31 34 57 65 57 70 0 4 11 14 25 21 14 7 25 17 25 22 0 4 21 30 48 56 26
26 61 65 77 86 17 21 68 78 115 126 99 102 200 211 200 215 0 2 37 42 83 89
45 47 107 113 137 147 74 83 158 169 165 169 3 0 5 -11 5 -25 0 -14 -4 -25
-10 -25 -5 0 -10 -9 -10 -20 0 -11 -4 -20 -10 -20 -5 0 -10 -11 -10 -25 0 -14
-3 -25 -7 -25 -11 0 -43 -58 -43 -76 0 -8 -4 -14 -10 -14 -5 0 -10 -7 -10 -15
0 -9 -11 -33 -25 -55 -14 -22 -25 -46 -25 -55 0 -8 -4 -15 -10 -15 -5 0 -10
-6 -10 -12 0 -11 -30 -79 -61 -140 -5 -10 -9 -24 -9 -32 0 -8 -3 -16 -7 -18
-11 -4 -72 -135 -87 -185 -4 -13 -12 -23 -17 -23 -5 0 -9 -11 -9 -24 0 -14 -4
-28 -10 -31 -5 -3 -10 -15 -10 -26 0 -10 -4 -27 -10 -37 -15 -28 -37 -84 -50
-132 -7 -25 -24 -77 -37 -116 -12 -39 -23 -82 -23 -97 0 -14 -4 -29 -10 -32
-5 -3 -10 -24 -10 -45 0 -21 -5 -51 -11 -67 -6 -15 -15 -84 -20 -153 -6 -69
-12 -154 -16 -190 -3 -46 0 -83 11 -120 20 -68 39 -110 48 -110 5 0 8 -6 8
-12 1 -37 93 -95 166 -105 40 -5 144 21 144 37 0 12 -33 52 -99 117 l-68 68
-12 103 c-7 56 -9 107 -5 113 3 6 10 57 14 112 7 91 16 137 48 257 13 47 41
127 59 170 8 19 19 44 23 55 4 11 24 53 44 94 20 41 36 80 36 88 0 7 4 13 10
13 5 0 12 11 16 25 3 14 10 25 15 25 5 0 9 9 9 20 0 11 5 20 10 20 6 0 10 6
10 14 0 18 32 76 43 76 4 0 7 9 7 20 0 11 3 20 8 20 8 0 32 49 32 67 0 7 4 13
9 13 11 0 41 56 41 76 0 7 3 14 8 16 9 4 51 76 59 101 3 9 9 17 14 17 5 0 9 9
9 20 0 11 4 20 10 20 5 0 12 11 16 25 3 14 10 25 15 25 5 0 9 9 9 20 0 11 5
20 10 20 6 0 10 7 10 15 0 9 11 33 25 55 14 22 25 44 25 50 0 6 4 18 9 28 27
52 81 210 81 238 0 11 5 25 11 31 7 7 13 71 16 160 l6 148 -28 33 c-25 30 -75
45 -75 23z"/>
</g>
</svg>
